<?xml version="1.0" encoding="iso-8859-1"?>
<!-- Uploaded to: SVG Repo, www.svgrepo.com, Generator: SVG Repo Mixer Tools -->
<svg fill="#000000" version="1.1" id="Layer_1" xmlns="http://www.w3.org/2000/svg" xmlns:xlink="http://www.w3.org/1999/xlink" 
	 viewBox="0 0 496 496" xml:space="preserve">
<g>
	<g>
		<g>
			<path d="M208,200v-24h-8.248c9.8-7.296,16.248-18.872,16.248-32c0-22.056-17.944-40-40-40c-22.056,0-40,17.944-40,40
				c0,13.128,6.448,24.704,16.248,32H94.912C114.616,165.08,128,144.08,128,120c0-35.288-28.712-64-64-64S0,84.712,0,120
				c0,24.08,13.376,45.08,33.088,56H0v144h32v176h16v-16h112v16h16V320h32v-24h21.88L296,333.792V162.208L229.88,200H208z
				 M24.92,147.768c-4.12-5.776-6.968-12.496-8.2-19.768H32v-16H16.72c1.224-7.272,4.08-13.992,8.2-19.768l10.8,10.8L47.032,91.72
				l-10.8-10.8c5.776-4.12,12.496-6.968,19.768-8.2V88h16V72.72c7.272,1.232,13.992,4.08,19.768,8.2l-10.8,10.8l11.312,11.312
				l10.8-10.8c4.12,5.776,6.968,12.496,8.2,19.768H96v16h15.28c-1.232,7.272-4.08,13.992-8.2,19.768l-10.8-10.8L80.968,148.28
				l10.8,10.8c-5.776,4.12-12.496,6.968-19.768,8.2V152H56v15.28c-7.272-1.224-13.992-4.08-19.768-8.2l10.8-10.8L35.72,136.968
				L24.92,147.768z M160,464H48V320h112V464z M192,200v96v8h-84.688l43.72-43.72c5.784-5.776,8.968-13.472,8.968-21.656
				c0-16.88-13.744-30.624-30.624-30.624c-8.176,0-15.872,3.184-21.656,8.968l-3.72,3.72l-3.72-3.72
				C94.496,211.184,86.808,208,78.624,208C61.744,208,48,221.744,48,238.624c0,8.176,3.184,15.872,8.968,21.656l43.72,43.72H16V192
				h176V200z M104,284.688l-35.72-35.72c-2.72-2.72-4.28-6.488-4.28-10.344C64,230.56,70.56,224,78.624,224
				c3.848,0,7.624,1.56,10.344,4.28L104,243.312l15.032-15.032c2.72-2.72,6.488-4.28,10.344-4.28c8.064,0,14.624,6.56,14.624,14.624
				c0,3.856-1.56,7.624-4.28,10.344L104,284.688z M176,168c-13.232,0-24-10.768-24-24s10.768-24,24-24s24,10.768,24,24
				S189.232,168,176,168z M224,280h-16v-64h16V280z M240,212.632l40-22.848v116.424l-40-22.856V212.632z"/>
			<path d="M480,0v112H328V0h-16v496h16V392h152v104h16V0H480z M480,376H328V256h152V376z M480,240H328V128h152V240z"/>
			<path d="M64,144c13.232,0,24-10.768,24-24S77.232,96,64,96s-24,10.768-24,24S50.768,144,64,144z M64,112c4.416,0,8,3.584,8,8
				s-3.584,8-8,8s-8-3.584-8-8S59.584,112,64,112z"/>
			<rect x="344" y="16" width="16" height="16"/>
			<rect x="448" y="16" width="16" height="16"/>
			<rect x="344" y="48" width="16" height="16"/>
			<rect x="448" y="48" width="16" height="16"/>
			<rect x="344" y="80" width="16" height="16"/>
			<rect x="448" y="80" width="16" height="16"/>
			<rect x="344" y="144" width="16" height="16"/>
			<rect x="448" y="144" width="16" height="16"/>
			<rect x="344" y="176" width="16" height="16"/>
			<rect x="448" y="176" width="16" height="16"/>
			<rect x="344" y="208" width="16" height="16"/>
			<rect x="448" y="208" width="16" height="16"/>
			<rect x="344" y="272" width="16" height="16"/>
			<rect x="448" y="272" width="16" height="16"/>
			<rect x="344" y="304" width="16" height="16"/>
			<rect x="448" y="304" width="16" height="16"/>
			<rect x="344" y="336" width="16" height="16"/>
			<rect x="448" y="336" width="16" height="16"/>
			<rect x="344" y="400" width="16" height="16"/>
			<rect x="448" y="400" width="16" height="16"/>
			<rect x="344" y="432" width="16" height="16"/>
			<rect x="448" y="432" width="16" height="16"/>
			<rect x="344" y="464" width="16" height="16"/>
			<rect x="448" y="464" width="16" height="16"/>
		</g>
	</g>
</g>
</svg>