<?xml version="1.0" encoding="utf-8"?>
<!-- Uploaded to: SVG Repo, www.svgrepo.com, Generator: SVG Repo Mixer Tools -->
<!DOCTYPE svg PUBLIC "-//W3C//DTD SVG 1.1//EN" "http://www.w3.org/Graphics/SVG/1.1/DTD/svg11.dtd">
<svg fill="#000000" width="800px" height="800px" viewBox="0 0 1000 1000" version="1.1" xmlns="http://www.w3.org/2000/svg" xmlns:xlink="http://www.w3.org/1999/xlink"  enable-background="new 0 0 1000 1000" xml:space="preserve">

<g>
<g transform="translate(0.000000,511.000000) scale(0.100000,-0.100000)">
<path d="M7072.3,4647.3c-186.3-66.3-311.4-176.1-400.7-347.1c-61.3-120-74-178.6-74-316.5c0-278.2,53.6-359.8,538.5-852.4c461.9-464.5,541.1-518.1,691.6-456.8c40.8,17.9,265.4,222,497.7,456.8c490,495.1,541,574.2,538.5,860c-2.6,275.6-125.1,477.2-372.6,612.5c-114.8,63.8-163.3,74-326.7,76.6c-158.2,0-211.8-12.8-308.8-66.3l-117.4-66.4l-122.5,63.8C7447.5,4695.8,7245.8,4708.6,7072.3,4647.3z"/>
<path d="M2869,4050.1c-155.7-43.4-354.7-255.2-395.6-423.6c-66.4-283.3-2.6-400.7,467-867.7c344.5-342,375.2-367.5,464.5-367.5c89.3,0,120,25.5,464.5,367.5c201.6,199.1,390.5,405.8,416,459.4c153.1,293.5,30.6,653.3-275.6,801.4c-132.7,66.3-370,61.2-502.8-7.7c-102.1-53.6-102.1-53.6-199.1-2.5C3188,4070.5,3004.3,4088.4,2869,4050.1z"/>
<path d="M4941.3,2608.2c-43.4-204.2-1066.8-4746.9-1077-4772.4c-5.1-17.8-81.7,12.8-211.8,91.9c-229.7,137.8-523.2,242.5-798.8,285.8c-234.8,35.7-722.2,15.3-929-38.3c-222-61.3-543.6-222-678.9-342C932-2445,796.7-2891.6,901.4-3284.6c58.7-219.5,168.4-395.6,385.4-610c165.9-168.4,250.1-227.1,446.6-324.1c359.8-178.6,561.5-227.1,982.5-242.4c306.3-10.2,390.5-5.1,584.4,40.8c717.1,171,1163.7,699.3,1102.5,1299c-20.4,186.3-109.7,428.8-209.3,558.9c-45.9,58.7-63.8,109.7-56.1,155.7c28.1,178.6,974.9,4359,992.7,4376.8c25.5,33.2,165.9-232.2,405.8-760.5C5949.4,296,6199.5-40.9,6615.5-245c362.4-176.1,729.9-186.3,1255.6-33.2c99.5,28.1,183.8,56.2,188.9,58.7c5.1,7.7-71.5,268-86.8,285.8c-2.5,5.1-117.4-23-257.8-58.7C7503.6-46,7421.9-56.2,7215.2-46c-224.6,10.2-270.5,20.4-439,104.6c-142.9,68.9-232.2,137.8-364.9,280.7c-206.7,222-321.6,416-592.1,1005.5c-336.9,729.9-477.2,962.1-750.3,1225l-112.3,109.8L4941.3,2608.2z"/>
<path d="M100,1860.4v-204.2h2205h2205l40.8,181.2c23,99.5,40.8,191.4,40.8,204.2c0,12.8-974.9,23-2245.8,23H100V1860.4z"/>
<path d="M5811.6,1860.4l94.4-201.6l1998.3-2.6H9900v204.2v204.2H7807.3H5717.1L5811.6,1860.4z"/>
<path d="M100,10.2v-191.4h2000.8h1998.3l30.6,155.7c17.9,86.8,38.3,171,45.9,191.4c10.2,30.6-290.9,35.7-2031.5,35.7H100V10.2z"/>
<path d="M4892.8,10.2l-38.3-191.4H5490h638L5995.3-23c-74,89.3-140.4,173.5-145.5,191.4c-10.2,25.5-122.5,33.2-464.5,33.2h-451.7L4892.8,10.2z"/>
<path d="M7136.1,168.4c91.9-15.3,188.8-15.3,293.5,0c155.7,25.5,153.1,25.5-132.7,25.5C7028.9,193.9,7013.6,193.9,7136.1,168.4z"/>
<path d="M8164.6,178.6c0-12.8,28.1-94.4,61.3-183.8l61.2-163.3l806.5-7.6l806.4-5.1V10.2v191.4h-867.7C8549.9,201.6,8164.6,191.4,8164.6,178.6z"/>
<path d="M100-1840.1v-204.2h487.5h487.5l86.8,74c107.2,97,283.3,199.1,464.5,273.1l145.5,61.2H937.1H100V-1840.1z"/>
<path d="M3328.4-1684.4c71.5-25.5,188.9-76.6,262.9-114.8c71.5-35.7,132.7-58.7,132.7-48.5c0,12.8,10.2,63.8,23,117.4l23,94.4l-285.8-2.5h-283.3L3328.4-1684.4z"/>
<path d="M4492.1-1781.4c-17.9-81.7-38.3-173.5-45.9-204.2l-12.8-58.7h2733.3H9900v204.2v204.2H7212.7H4522.8L4492.1-1781.4z"/>
<path d="M100-3690.4v-191.4h433.9h433.9l-102.1,158.2c-56.2,84.2-102.1,171-102.1,191.4c0,25.5-71.5,33.2-331.8,33.2H100V-3690.4z"/>
<path d="M4550.8-3644.4c-30.6-81.7-61.2-168.4-74-191.4c-17.9-43.4,120-45.9,2702.7-45.9H9900v191.4v191.4H7250.9H4604.4L4550.8-3644.4z"/>
</g>
</g>
</svg>